<?xml version="1.0" standalone="no"?>
<!DOCTYPE svg PUBLIC "-//W3C//DTD SVG 20010904//EN"
 "http://www.w3.org/TR/2001/REC-SVG-20010904/DTD/svg10.dtd">
<svg version="1.0" xmlns="http://www.w3.org/2000/svg"
 width="512.000000pt" height="512.000000pt" viewBox="0 0 512.000000 512.000000"
 preserveAspectRatio="xMidYMid meet">

<g transform="translate(0.000000,512.000000) scale(0.100000,-0.100000)"
fill="#000000" stroke="none">
<path d="M1985 4489 c-660 -230 -1274 -444 -1365 -476 -104 -36 -174 -66 -189
-81 -22 -22 -23 -29 -18 -100 6 -104 -7 -184 -45 -262 -36 -73 -122 -166 -184
-198 -39 -20 -64 -55 -64 -91 0 -30 306 -898 323 -915 8 -9 36 -79 62 -157 26
-78 56 -150 66 -160 16 -16 35 -19 122 -19 111 0 177 -14 261 -57 58 -29 138
-102 168 -152 39 -65 58 -81 101 -81 l39 0 -7 -57 c-25 -210 -185 -366 -390
-380 -38 -3 -75 -10 -81 -14 -6 -5 -14 -26 -18 -47 -5 -32 -14 -42 -65 -75
-33 -21 -62 -45 -66 -54 -4 -11 11 -34 47 -70 33 -33 49 -56 42 -61 -6 -4 -32
-20 -57 -37 -60 -38 -60 -58 -2 -115 25 -24 45 -47 45 -51 0 -3 -25 -23 -55
-43 -32 -21 -55 -44 -55 -54 0 -10 27 -44 60 -77 l60 -59 1403 -128 c771 -70
1421 -127 1445 -128 30 0 42 4 42 14 0 8 -3 17 -8 20 -4 2 -642 61 -1417 131
-776 69 -1420 128 -1431 130 -12 3 -43 24 -70 48 l-48 44 50 33 c87 58 89 76
16 141 -27 23 -42 43 -36 47 6 4 32 21 57 37 61 39 62 66 7 120 -22 21 -40 42
-40 46 0 4 15 17 33 28 59 36 87 68 87 99 l0 29 74 5 c221 14 416 223 416 445
0 50 -15 41 180 108 74 25 142 49 150 52 8 3 116 40 240 83 436 151 495 172
525 186 57 26 115 43 129 38 16 -6 180 42 306 91 47 18 119 44 160 58 41 14
102 35 135 46 33 12 202 70 375 130 l315 108 524 -48 524 -48 45 -44 45 -45
-57 -37 c-72 -48 -73 -69 -10 -128 l46 -43 -56 -42 c-33 -25 -56 -50 -56 -61
0 -11 21 -40 48 -65 52 -52 55 -42 -32 -103 -40 -28 -46 -37 -46 -68 l0 -35
-49 0 c-27 0 -78 -9 -114 -20 -331 -102 -440 -520 -201 -770 61 -65 167 -125
236 -136 36 -6 38 -8 38 -43 0 -31 8 -45 59 -95 55 -55 81 -64 81 -31 0 8 -22
33 -50 57 -45 39 -50 47 -50 85 0 47 -10 56 -74 67 -112 21 -230 117 -287 233
-29 57 -34 79 -37 158 -5 112 11 176 67 262 71 110 190 179 326 190 77 6 95
18 95 64 0 22 12 36 62 71 35 24 64 52 66 62 3 12 -14 37 -45 68 -39 40 -45
51 -33 58 50 28 100 73 100 88 0 10 -20 38 -45 62 -25 24 -45 47 -45 51 0 3
25 23 55 43 32 21 55 44 55 54 0 10 -27 44 -59 76 l-60 59 -468 43 c-257 24
-477 43 -488 44 -12 0 -2 8 26 21 26 11 52 30 58 42 6 12 12 77 14 147 2 113
5 131 29 184 44 92 93 151 169 201 73 49 89 68 89 108 0 41 -419 1230 -442
1254 -19 21 -29 22 -137 22 -94 -1 -127 3 -176 20 -110 39 -190 106 -253 212
-23 38 -59 60 -95 58 -12 -1 -562 -189 -1222 -420z m1532 -128 c21 -11 30 -20
21 -21 -27 0 -76 -48 -84 -83 l-7 -32 -11 34 c-13 37 -58 81 -84 81 -9 1 0 10
22 21 25 14 44 33 54 58 l16 38 17 -38 c12 -25 31 -45 56 -58z m-1336 -317
l67 -67 97 18 c53 9 98 15 101 12 3 -2 -14 -44 -38 -91 l-43 -87 45 -84 c25
-46 42 -86 39 -90 -4 -3 -48 0 -99 7 l-93 12 -63 -67 c-35 -37 -68 -67 -73
-67 -5 0 -14 30 -20 68 -22 132 -14 120 -108 163 -47 21 -83 44 -81 50 2 6 39
30 83 52 l80 42 7 55 c17 125 20 140 26 140 4 0 37 -30 73 -66z m563 -13 c45
-46 50 -48 84 -41 93 19 102 20 102 5 0 -8 -12 -39 -27 -69 l-27 -55 33 -61
c18 -34 30 -64 28 -67 -3 -3 -37 0 -74 7 l-68 12 -47 -53 c-26 -30 -51 -50
-55 -46 -4 5 -12 36 -18 70 l-10 62 -60 32 c-33 17 -61 35 -62 40 -2 4 23 22
55 38 60 32 61 34 77 138 3 20 9 37 13 37 4 0 29 -22 56 -49z m-1097 -8 c9
-23 -32 -53 -73 -53 -38 0 -51 14 -33 37 28 33 95 44 106 16z m-173 -36 c67
-49 -116 -156 -265 -157 -81 0 -102 16 -78 58 41 73 283 143 343 99z m-733
-54 c22 -59 -12 -86 -36 -28 -9 20 -13 40 -10 45 12 19 36 10 46 -17z m62
-176 c14 -42 16 -62 9 -69 -8 -8 -15 -8 -24 0 -19 15 -51 109 -43 122 15 25
39 3 58 -53z m994 -123 c34 13 123 19 123 8 0 -7 -12 -37 -27 -68 l-28 -56 33
-60 c18 -33 31 -63 28 -65 -3 -3 -36 -1 -73 5 l-68 11 -46 -51 c-26 -28 -51
-48 -57 -44 -5 3 -13 30 -17 59 -10 72 -17 81 -80 107 -30 12 -55 28 -55 34 0
7 27 25 59 41 l60 28 6 56 c11 98 10 98 72 41 33 -31 62 -49 70 -46z m1811 14
c16 -16 15 -63 0 -75 -7 -6 -34 -18 -60 -28 l-46 -17 74 -215 c70 -204 74
-217 59 -239 -18 -28 -56 -31 -77 -6 -8 9 -46 105 -83 212 -37 107 -71 199
-76 204 -5 5 -27 2 -53 -8 -51 -20 -81 -15 -97 16 -24 44 0 62 153 116 149 53
186 60 206 40z m-2744 -66 c21 -61 20 -82 -3 -82 -15 0 -24 13 -37 54 -29 91
10 118 40 28z m2314 -84 c16 -16 15 -63 0 -76 -7 -5 -56 -25 -108 -43 -52 -17
-99 -35 -104 -40 -8 -7 19 -106 34 -122 4 -4 43 6 88 22 88 33 124 31 134 -6
11 -41 -8 -60 -89 -88 -43 -16 -82 -32 -87 -36 -7 -6 15 -94 30 -121 3 -4 50
9 106 28 110 37 137 41 156 22 16 -16 15 -63 0 -75 -18 -14 -276 -103 -298
-103 -11 0 -26 10 -34 23 -25 39 -177 489 -171 507 6 19 54 41 195 89 94 33
130 37 148 19z m-2245 -111 c20 -60 14 -86 -15 -74 -16 6 -52 113 -43 128 15
24 39 1 58 -54z m1835 -29 c22 -22 12 -64 -45 -193 -31 -71 -52 -130 -47 -132
5 -2 65 -34 134 -71 110 -59 125 -70 128 -95 4 -36 -13 -57 -47 -57 -14 0 -82
32 -151 70 -69 38 -126 68 -127 66 -1 -1 12 -46 29 -99 31 -94 32 -96 13 -116
-24 -28 -61 -27 -79 2 -8 12 -51 128 -96 257 -66 192 -79 239 -71 257 10 22
27 28 61 23 24 -3 29 -11 64 -109 l33 -93 62 146 c35 80 68 147 75 150 21 9
52 6 64 -6z m-1775 -145 c22 -62 22 -83 -2 -83 -14 0 -24 13 -35 47 -21 61
-20 83 2 83 12 0 23 -15 35 -47z m1348 -33 c22 -12 26 -59 7 -78 -7 -7 -35
-12 -62 -12 -125 -1 -217 -98 -203 -216 16 -146 193 -214 307 -119 46 38 70
43 94 19 24 -24 19 -62 -11 -91 -37 -34 -119 -71 -175 -79 -84 -12 -203 38
-258 109 -125 158 -58 396 129 463 44 16 145 18 172 4z m-1304 -112 c5 -7 18
-35 27 -61 19 -50 12 -75 -16 -65 -16 7 -53 112 -44 127 9 14 21 14 33 -1z
m797 -31 c22 -16 189 -493 181 -518 -9 -28 -43 -43 -70 -31 -32 15 -202 500
-186 530 17 32 47 40 75 19z m-146 -59 c16 -16 15 -63 0 -75 -7 -6 -31 -16
-53 -23 -22 -7 -43 -14 -47 -17 -4 -2 24 -94 62 -205 39 -110 70 -214 70 -229
0 -43 -53 -65 -83 -35 -7 8 -44 103 -82 213 -37 109 -71 202 -75 207 -5 4 -31
1 -59 -9 -48 -16 -54 -16 -76 -1 -29 19 -33 57 -9 77 24 20 273 107 310 108
16 1 35 -4 42 -11z m-1036 -170 c22 -19 27 -28 16 -28 -21 0 -58 -46 -58 -74
-1 -15 -7 -9 -21 21 -13 27 -30 45 -47 51 l-27 9 32 16 c21 11 35 29 44 54
l12 38 8 -30 c5 -16 23 -42 41 -57z m465 45 c19 -47 22 -94 6 -100 -15 -5 -53
76 -53 113 0 37 29 29 47 -13z m-273 -154 c9 -15 31 -34 47 -42 l30 -14 -36
-22 c-23 -13 -43 -36 -53 -60 l-17 -39 -20 42 c-15 29 -33 47 -65 63 -40 20
-42 22 -18 23 33 0 73 46 89 103 l12 42 7 -35 c3 -19 14 -47 24 -61z m323 -1
c6 -7 18 -35 27 -62 16 -51 11 -74 -16 -64 -17 7 -52 103 -44 123 7 18 20 19
33 3z m86 -241 c14 -43 16 -62 8 -70 -15 -15 -28 -1 -50 59 -20 53 -18 77 7
72 9 -2 24 -27 35 -61z m65 -186 c20 -60 20 -71 -5 -71 -13 0 -40 55 -50 103
-5 22 -2 27 15 27 16 0 25 -13 40 -59z m65 -185 c14 -43 16 -61 8 -69 -16 -16
-35 7 -54 64 -11 35 -12 50 -4 58 19 19 30 7 50 -53z m57 -161 c12 -37 7 -55
-15 -55 -15 0 -40 64 -30 80 13 21 34 9 45 -25z"/>
<path d="M1274 1309 c-11 -19 -63 -623 -54 -633 5 -5 15 -6 22 -3 11 4 21 81
42 315 15 171 25 316 21 321 -8 14 -22 14 -31 0z"/>
<path d="M1026 1078 c-3 -24 -13 -117 -21 -208 -12 -136 -12 -167 -2 -178 26
-25 34 10 51 203 20 236 20 225 -3 225 -16 0 -21 -9 -25 -42z"/>
</g>
</svg>
